
<svg aria-hidden="true" width="271px" height="38px" viewBox="0 0 271 38" version="1.1" xmlns="http://www.w3.org/2000/svg" xmlns:xlink="http://www.w3.org/1999/xlink">
    <g id="Symbols" stroke="none" stroke-width="1" fill="none" fill-rule="evenodd">
        <g id="logos/BMO-Field-Logo_white" fill-rule="nonzero">
            <g id="BMO-Field-Logo_white">
                <path d="M113.919663,0 C103.709187,0 95.4230769,8.5089701 95.4230769,18.9971945 C95.4230769,29.4910299 103.709187,38 113.919663,38 C124.14243,38 132.423077,29.4910299 132.423077,18.9971945 C132.423077,8.5089701 124.14243,0 113.919663,0" id="Path" fill="#DB1A20"></path>
                <rect id="Rectangle" fill="#FFFFFF" x="103.423077" y="22" width="20" height="6"></rect>
                <path d="M112.771857,12.2114262 C113.033716,12.5555835 113.255816,12.6622439 113.490255,12.6679324 C113.730179,12.6622439 113.93994,12.5726492 114.201799,12.2114262 C114.201799,12.2114262 117.544272,7.65916345 117.718388,7.43588783 C118.168073,6.85565565 118.715098,6.85565565 119.164782,7.43588783 L123.423077,13.0263111 L123.423077,22 L119.192202,16.3640683 C118.695904,15.7226842 118.131056,15.7169956 117.632016,16.3640683 C117.464755,16.5944546 114.218251,21.0557006 114.218251,21.0557006 C113.712356,21.7155725 113.227025,21.7155725 112.730727,21.0557006 C112.730727,21.0557006 109.406077,16.5731225 109.256639,16.3640683 C108.769937,15.7283728 108.228396,15.7169956 107.700565,16.3640683 L103.424448,22 L103.423077,13.0533317 C103.423077,13.0533317 107.494917,7.75302454 107.755405,7.43588783 C108.216057,6.85565565 108.769937,6.85565565 109.220993,7.43019928 C109.426641,7.70893827 112.771857,12.2114262 112.771857,12.2114262" id="Path" fill="#FFFFFF"></path>
                <path d="M152.525622,9.03203812 L149.623858,9.02646628 L148.028509,9.03760997 L144.423077,9.00557185 L144.423077,10.6840909 L144.506024,10.6896628 C145.104625,10.717522 146.495371,10.865176 146.495371,11.5714076 L146.495371,25.4578446 C146.495371,25.9774194 145.80691,26.2796921 144.506024,26.3395894 L144.423077,26.3451613 L144.423077,28 L148.896688,27.926173 L153.598404,28 L153.598404,26.3507331 L153.515457,26.3451613 C152.503503,26.3173021 151.325655,26.1390029 151.325655,25.4327713 C151.325655,25.4327713 151.325655,19.3343842 151.325655,19.1700147 C151.474959,19.1644428 152.680457,19.1435484 152.680457,19.1435484 C154.960118,19.1435484 155.492362,20.072654 155.608488,21.5659091 L155.616783,21.6480938 L157.25637,21.6480938 L157.174805,18.279912 L157.25637,14.8323314 L155.622313,14.8323314 L155.616783,14.9145161 C155.466096,17.3870235 154.165209,17.4093109 151.325655,17.4148827 C151.325655,17.2463343 151.325655,10.9 151.325655,10.7356305 C151.486019,10.7356305 153.753239,10.7356305 153.753239,10.7356305 C157.203836,10.7356305 158.934665,10.7356305 159.49594,13.9673021 L159.509765,14.0397361 L161.423077,14.0397361 L161.423077,9 L152.525622,9.03203812" id="Path" fill="#FFFFFF"></path>
                <path d="M179.339572,9 C176.390382,9.09198269 173.418659,9.09198269 170.506582,9 L170.423077,9 L170.423077,10.6682315 L170.505257,10.6682315 C170.88832,10.6738062 172.056067,10.6947114 172.481545,11.1448691 C172.586258,11.2535759 172.636626,11.3804005 172.636626,11.533705 L172.636626,25.4537519 C172.636626,26.0126164 171.918217,26.3136507 170.503931,26.347099 L170.423077,26.347099 L170.423077,28 L172.249586,27.9777012 C174.444579,27.9498276 176.932503,27.9233478 179.340897,27.9902443 L179.423077,27.9972126 L179.423077,26.347099 L179.342223,26.347099 C177.926612,26.3136507 177.212179,26.0140101 177.212179,25.4537519 L177.212179,11.5350987 C177.212179,11.3817942 177.261221,11.2549696 177.364609,11.140688 C177.791413,10.6974987 178.959159,10.6751999 179.342223,10.6696252 L179.423077,10.6696252 L179.423077,9 L179.339572,9" id="Path" fill="#FFFFFF"></path>
                <path d="M197.27723,9.03203343 L194.425653,9.0264624 L193.107961,9.03203343 L189.423077,9.00557103 L189.423077,10.683844 L189.503808,10.689415 C190.229017,10.7270195 191.449558,10.8969359 191.449558,11.5710306 L191.449558,25.4554318 C191.449558,26.1685237 190.089448,26.3259053 189.503808,26.3635097 L189.423077,26.3690808 L189.423077,27.9986072 L193.021757,27.9665738 L194.599429,27.9721448 L197.516686,27.9721448 L206.421709,28 L206.423077,22.4108635 L204.533428,22.4108635 L204.522481,22.4832869 C204.068199,25.2827298 202.647884,26.2729805 199.094358,26.2729805 C199.094358,26.2729805 196.330353,26.2729805 196.17026,26.2729805 C196.17026,26.1030641 196.17026,19.1072423 196.17026,18.9387187 C197.148608,18.9665738 199.75252,19.0905292 200.105546,21.4442897 L200.117861,21.5153203 L201.729741,21.5153203 L201.729741,14.7493036 L200.112388,14.7493036 L200.097336,14.8203343 C199.778518,16.4066852 197.909394,17.1601671 196.17026,17.2144847 C196.17026,17.0376045 196.17026,10.8997214 196.17026,10.735376 C196.327617,10.735376 198.430723,10.735376 198.430723,10.735376 C202.137501,10.735376 203.589287,11.0153203 204.111985,13.9665738 L204.122932,14.0389972 L206.018054,14.0389972 L206.018054,9 L197.27723,9.03203343" id="Path" fill="#FFFFFF"></path>
                <path d="M216.424427,10.675077 L216.505424,10.6806513 C217.24115,10.7127035 218.48041,10.8687839 218.48041,11.5349127 L218.48041,25.4539387 C218.48041,26.1451518 217.24115,26.3026258 216.505424,26.3416459 L216.424427,26.3416459 L216.424427,27.9986064 L220.063909,27.9665542 L221.647408,27.9721285 L224.545764,27.9721285 L233.423077,28 L233.423077,22.1664955 L231.561487,22.1664955 L231.550688,22.2459293 C231.099802,25.2532639 229.748496,26.2719671 226.191361,26.2719671 C226.191361,26.2719671 223.297055,26.2719671 223.13641,26.2719671 C223.13641,26.101951 223.13641,11.5363063 223.13641,11.5363063 C223.13641,11.0165029 223.822188,10.7252457 225.166744,10.6764706 L225.249091,10.6764706 L225.249091,9 L225.161344,9.0055743 C222.532979,9.08779522 219.136489,9.08779522 216.508124,9.0055743 L216.423077,9 L216.423077,10.675077" id="Path" fill="#FFFFFF"></path>
                <path d="M241.423077,10.699187 L241.505157,10.7047535 C242.089457,10.7423277 243.450039,10.8981909 243.450039,11.5578261 L243.450039,25.4574819 C243.450039,26.0099612 242.445601,26.2729803 241.505157,26.3383872 L241.423077,26.3439537 L241.423077,27.9972167 L244.695154,27.92346 L247.167297,27.9568593 L252.012809,28 C259.212212,28 262.423077,25.0218999 262.423077,18.3406577 C262.423077,11.9794917 259.24421,9.01809126 252.423209,9.01809126 L244.869052,9.07097341 L241.423077,9 L241.423077,10.699187 L241.423077,10.699187 Z M249.909331,10.6936204 C256.566171,10.6936204 257.125429,14.7321468 257.125429,18.5243536 C257.125429,23.4479602 255.895617,26.300813 249.61579,26.300813 C249.613007,26.300813 248.373458,26.2785468 248.224601,26.2785468 C248.224601,26.1087673 248.224601,10.9288069 248.224601,10.7659855 C248.373458,10.7576357 249.909331,10.6936204 249.909331,10.6936204 Z" id="Shape" fill="#FFFFFF"></path>
                <path d="M61.4230769,18.9893307 C61.4230769,25.4464044 65.1560798,29 71.9379494,29 C78.7008905,29 82.4230769,25.4464044 82.4230769,18.9893307 C82.4230769,12.5493278 78.7008905,9 71.9379494,9 C65.1560798,9 61.4230769,12.5479053 61.4230769,18.9893307 L61.4230769,18.9893307 Z M66.7677202,18.9893307 C66.7677202,14.8055338 67.1679263,10.715627 71.9379494,10.715627 C76.6795796,10.715627 77.0770816,14.8055338 77.0770816,18.9893307 C77.0770816,23.1901984 76.6795796,27.2914859 71.9379494,27.2914859 C67.1679263,27.2900633 66.7677202,23.1901984 66.7677202,18.9893307 Z" id="Shape" fill="#FFFFFF"></path>
                <path d="M34.2360714,9.00688406 C32.0563491,9.10326087 29.7308579,9.10876812 27.5129905,9.0234058 L27.4230769,9.0234058 L27.4230769,10.6714493 L27.5048165,10.6714493 C28.3004151,10.7086232 29.247232,10.8876087 29.247232,11.520942 L29.247232,25.2725362 C29.247232,25.8191304 28.6777796,26.1013768 27.5048165,26.1495652 L27.4230769,26.1550725 L27.4230769,27.7714493 L27.5129905,27.765942 C29.4216098,27.6695652 31.8315653,27.7177536 33.5194877,27.7714493 L33.603952,27.7783333 L33.603952,26.1550725 L33.5235747,26.1495652 C31.5291288,26.0903623 31.5291288,25.5823188 31.5291288,25.2725362 C31.5291288,25.2725362 31.5291288,14.3034783 31.5291288,13.5861594 C31.8370146,14.2442754 38.2562967,28 38.2562967,28 L40.1267709,28 C40.1267709,28 46.2272687,15.298913 46.5324298,14.6614493 C46.5324298,15.3526087 46.5324298,25.2725362 46.5324298,25.2725362 C46.5324298,25.786087 45.7436428,26.1013768 44.3118377,26.1495652 L44.2300981,26.1495652 L44.2300981,27.7865942 L47.5868705,27.759058 L50.0417827,27.759058 L53.4230769,27.7865942 L53.4230769,26.1495652 L53.3426997,26.1495652 C52.3808972,26.1178986 51.2338183,25.9334058 51.2338183,25.2725362 L51.2338183,11.520942 C51.2338183,11.023913 51.9844602,10.7196377 53.3426997,10.6714493 L53.4230769,10.6714493 L53.4230769,9.02202899 L53.335888,9.02202899 C51.036281,9.1184058 48.8007033,9.12391304 46.8730114,9.03304348 L46.7490397,9.02753623 C46.7490397,9.02753623 40.6471796,21.6143478 40.4973237,21.9213768 C40.3515548,21.612971 34.3586808,9 34.3586808,9 L34.2360714,9.00688406" id="Path" fill="#FFFFFF"></path>
                <path d="M7.58414135,9.02645076 C5.41047188,9.04315651 2.94968757,9.06960727 0.512712777,9.01113716 L0.423076923,9.00556858 L0.423076923,10.666398 L0.509911657,10.666398 C1.20458953,10.6719666 2.07573799,10.8042204 2.44128421,11.1425117 C2.55893126,11.2510991 2.61355311,11.3722157 2.61355311,11.5197831 L2.61355311,25.4579426 C2.61355311,26.0315064 1.52531782,26.3001905 0.504309416,26.3656213 L0.423076923,26.3711899 L0.423076923,27.9944314 L0.512712777,27.9944314 C2.86845507,27.9345692 5.35164835,27.9568435 7.34604611,27.9777257 L10.9762982,28 C13.7578108,28 18.4230769,27.3067116 18.4230769,22.6332796 C18.4230769,19.0679953 15.6289593,17.9320047 13.0113122,17.6424385 C15.8796596,17.1050703 17.4496876,15.5305539 17.4496876,13.1541618 C17.4496876,9.47472157 14.1793794,9 11.3320405,9 C11.3306399,9 7.58414135,9.02645076 7.58414135,9.02645076 L7.58414135,9.02645076 Z M8.17517776,10.6775352 L8.97209653,10.6775352 C11.6177548,10.6775352 12.4664943,11.4139801 12.4664943,13.7068435 C12.4664943,16.019197 11.4370825,16.9644637 8.91047188,16.9644637 C8.91047188,16.9644637 7.60655031,16.9644637 7.45108813,16.9644637 C7.45108813,16.7960141 7.45108813,10.8752198 7.45108813,10.7165152 C7.58134023,10.7095545 8.17517776,10.6775352 8.17517776,10.6775352 Z M8.97209653,18.662881 C12.158371,18.662881 13.2340013,19.5872655 13.2340013,22.3144783 C13.2340013,25.3493552 12.203189,26.2737397 8.82363715,26.2737397 C8.82363715,26.2737397 7.60655031,26.2737397 7.45108813,26.2737397 C7.45108813,26.103898 7.45108813,18.8341149 7.45108813,18.662881 C7.60935143,18.662881 8.97209653,18.662881 8.97209653,18.662881 Z" id="Shape" fill="#FFFFFF"></path>
                <polyline id="Path" fill="#FFFFFF" points="266.178812 25.4574197 265.423077 25.4574197 265.423077 25 267.423077 25 267.423077 25.4574197 266.661943 25.4574197 266.661943 28 266.178812 28 266.178812 25.4574197"></polyline>
                <path d="M269.864338,26.7776645 C269.848578,26.3875574 269.827088,25.9194289 269.832819,25.5109638 L269.821358,25.5109638 C269.728235,25.8796532 269.612189,26.2850586 269.487547,26.6644569 L269.077805,27.9663437 L268.683822,27.9663437 L268.305598,26.6828149 C268.198149,26.300357 268.097862,25.8903621 268.023363,25.5109638 L268.014767,25.5109638 C268.003306,25.90872 267.984682,26.3844977 267.964624,26.7929628 L267.90302,28 L267.423077,28 L267.612189,25 L268.286974,25 L268.653736,26.2070372 C268.754022,26.5573687 268.841415,26.9153493 268.914481,27.2473228 L268.925942,27.2473228 C269.001873,26.9214686 269.096429,26.554309 269.205312,26.2009179 L269.592131,25 L270.261186,25 L270.423077,28 L269.921644,28 L269.864338,26.7776645" id="Path" fill="#FFFFFF"></path>
            </g>
        </g>
    </g>
</svg>